<?xml version="1.0" standalone="no"?>
<!DOCTYPE svg PUBLIC "-//W3C//DTD SVG 20010904//EN"
 "http://www.w3.org/TR/2001/REC-SVG-20010904/DTD/svg10.dtd">
<svg version="1.0" xmlns="http://www.w3.org/2000/svg"
 width="700.000000pt" height="700.000000pt" viewBox="0 0 700.000000 700.000000"
 preserveAspectRatio="xMidYMid meet">
<metadata>
Created by potrace 1.11, written by Peter Selinger 2001-2013
</metadata>
<g transform="translate(0.000000,700.000000) scale(0.100000,-0.100000)"
fill="#000000" stroke="none">
<path d="M872 6127 l-872 -872 0 -2630 0 -2630 875 875 875 875 0 1752 0 1753
878 0 877 0 875 875 875 875 -1755 0 -1755 0 -873 -873z"/>
<path d="M6123 6128 l-873 -873 0 -1753 0 -1752 -878 0 -877 0 -875 -875 -875
-875 1755 0 1755 0 873 873 872 872 -2 2628 -3 2627 -872 -872z"/>
<path d="M2625 4368 c-3 -7 -4 -402 -3 -878 l3 -865 875 0 875 0 0 875 0 875
-873 3 c-693 2 -874 0 -877 -10z"/>
</g>
</svg>
