<svg width="96" height="96" viewBox="0 0 96 96" fill="none" xmlns="http://www.w3.org/2000/svg">
<rect x="36" y="36" width="24" height="24" rx="1" fill="white"/>
<path d="M0 24.7C0 24.1583 0.219712 23.6398 0.608891 23.263L24.0568 0.563053C24.4299 0.201914 24.9287 0 25.4479 0H59.0587C60.8562 0 61.7412 2.1867 60.4498 3.43695L39.7605 23.4663C39.3875 23.8274 38.8886 24.0293 38.3694 24.0293H26.8211C25.7165 24.0293 24.8211 24.9248 24.8211 26.0293V71.1232C24.8211 71.6649 24.6014 72.1834 24.2122 72.5601L3.39111 92.7171C2.12212 93.9456 0 93.0463 0 91.2801V24.7Z" fill="white"/>
<path d="M96 71.3C96 71.8417 95.7803 72.3602 95.3911 72.737L71.9432 95.4369C71.5701 95.7981 71.0713 96 70.5521 96L36.9413 96C35.1438 96 34.2588 93.8133 35.5502 92.563L56.2395 72.5337C56.6125 72.1726 57.1114 71.9707 57.6306 71.9707L69.1789 71.9707C70.2835 71.9707 71.1789 71.0752 71.1789 69.9707L71.1789 24.8768C71.1789 24.3351 71.3986 23.8166 71.7878 23.4398L92.6089 3.28293C93.8779 2.05442 96 2.95366 96 4.71988L96 71.3Z" fill="white"/>
</svg>
